<?xml version="1.0" encoding="UTF-8" standalone="no"?>
<svg
   viewBox="0 0 24 24"
   width="24"
   height="24"
   class="xfx01vb x1lliihq x1tzjh5l x1k90msu x2h7rmj x1qfuztq"
   version="1.1"
   id="svg4"
   xmlns="http://www.w3.org/2000/svg"
   xmlns:svg="http://www.w3.org/2000/svg">
  <defs
     id="defs8" />
  <path
     d="M 8.99,23 H 7.93 C 6.576,23 5.459,23 4.575,22.881 3.647,22.756 2.828,22.485 2.172,21.828 1.516,21.172 1.244,20.353 1.119,19.425 1,18.541 1,17.425 1,16.07 v -4.3 C 1,10.032 0.998,8.823 1.528,7.764 2.058,6.704 3.025,5.98 4.416,4.938 L 6.65,3.263 C 7.764,2.428 8.67,1.748 9.465,1.286 10.294,0.803 11.092,0.5 12,0.5 c 0.908,0 1.707,0.303 2.537,0.786 0.795,0.462 1.7,1.142 2.815,1.977 l 2.232,1.675 c 1.391,1.042 2.359,1.766 2.888,2.826 0.53,1.059 0.53,2.268 0.528,4.006 v 4.3 c 0,1.355 0,2.471 -0.119,3.355 -0.124,0.928 -0.396,1.747 -1.052,2.403 -0.657,0.657 -1.476,0.928 -2.404,1.053 C 18.541,23 17.425,23 16.071,23 Z M 7.8,4.9 5.8,6.4 C 4.15,7.638 3.61,8.074 3.317,8.658 3.025,9.242 3,9.937 3,12 v 4 c 0,1.442 0.002,2.424 0.101,3.159 0.095,0.706 0.262,1.033 0.485,1.255 0.223,0.223 0.55,0.39 1.256,0.485 0.734,0.099 1.716,0.1 3.158,0.1 V 14.5 A 2.5,2.5 0 0 1 10.5,12 h 3 A 2.5,2.5 0 0 1 16,14.5 V 21 c 1.443,0 2.424,-0.002 3.159,-0.101 0.706,-0.095 1.033,-0.262 1.255,-0.485 0.223,-0.222 0.39,-0.55 0.485,-1.256 C 20.998,18.424 21,17.442 21,16 V 12 C 21,9.937 20.975,9.242 20.683,8.658 20.392,8.074 19.851,7.638 18.2,6.4 l -2,-1.5 C 15.026,4.019 14.213,3.411 13.53,3.014 12.87,2.63 12.425,2.5 12,2.5 11.575,2.5 11.13,2.63 10.47,3.014 9.788,3.411 8.975,4.019 7.8,4.9 Z M 14,21 V 14.5 A 0.5,0.5 0 0 0 13.5,14 h -3 A 0.5,0.5 0 0 0 10,14.5 V 21 Z"
     id="path2" />
  <path
     style="fill:#aa0000;fill-rule:evenodd;stroke:#830000;stroke-width:2.63423;stroke-linecap:round;stroke-opacity:1"
     d="M 1.4259978,22.752114 22.602676,1.3915947"
     id="path347" />
</svg>
